<svg width="319" height="261" viewBox="0 0 319 261" fill="none" xmlns="http://www.w3.org/2000/svg">
<path d="M82.1043 50.1599C65.1382 50.1599 51.3152 63.6717 51.3152 80.2558C51.3152 96.8399 65.1382 110.352 82.1043 110.352C99.0704 110.352 112.893 96.8399 112.893 80.2558C112.893 63.6717 99.0704 50.1599 82.1043 50.1599ZM161.13 75.3966L130.758 60.5681L141.502 29.0927C142.945 24.8291 138.808 20.785 134.478 22.2271L102.278 32.7293L87.0755 3.00959C85.0229 -1.0032 79.1858 -1.0032 77.1331 3.00959L61.9631 32.698L29.7307 22.1957C25.3689 20.785 21.2317 24.8291 22.707 29.0614L33.4511 60.5367L3.07891 75.3966C-1.0263 77.403 -1.0263 83.1087 3.07891 85.1151L33.4511 99.9436L22.707 131.45C21.2637 135.714 25.401 139.758 29.7307 138.316L61.931 127.814L77.1011 157.502C79.1537 161.515 84.9908 161.515 87.0434 157.502L102.213 127.814L134.414 138.316C138.776 139.727 142.913 135.682 141.438 131.45L130.693 99.9749L161.066 85.1464C165.235 83.1087 165.235 77.403 161.13 75.3966ZM111.129 108.627C95.1255 124.271 69.0831 124.271 53.0792 108.627C37.0752 92.9839 37.0752 67.5277 53.0792 51.8841C69.0831 36.2405 95.1255 36.2405 111.129 51.8841C127.133 67.5277 127.133 92.9839 111.129 108.627Z" fill="#F2C85A"/>
<path d="M271.754 146.56C273.646 141.727 274.707 136.443 274.707 130.934C274.707 106.998 254.868 87.5781 230.414 87.5781C221.325 87.5781 212.836 90.2878 205.823 94.8943C193.042 73.2166 169.189 58.6744 141.829 58.6744C101.043 58.6744 68.0075 91.0104 68.0075 130.934C68.0075 132.153 68.0537 133.372 68.0998 134.592C42.2623 143.489 23.7147 167.605 23.7147 195.967C23.7147 231.871 53.4739 261 90.1539 261H259.943C292.563 261 319 235.122 319 203.193C319 175.237 298.699 151.889 271.754 146.56Z" fill="white"/>
</svg>
